# xmcd
#
# Track frame offsets: 
#        150
#        13687
#        31575
#        50965
#        57007
#        77310
#        94897
#        96042
#        115567
#        133325
#        149497
#        172230
#        191260
#        213010
#        230272
#        234950
#        259225
#        271642
#        297127
#
# Disc length: 4190 seconds
#
# Revision: 3
# Processed by: cddbd v1.5.1PL0 Copyright (c) Steve Scherf et al.
# Submitted via: ExactAudioCopy v0.90b4
#
DISCID=fb105c13
DTITLE=Lord Tariq and Peter Gunz - Make It Reign
DYEAR=1998
DGENRE=Rap
TTITLE0=Make It Reign
TTITLE1=We Will Ball
TTITLE2=Massive Heat (Feat. Kurupt and Sticky Fingaz)
TTITLE3=Sex, Money, Life Or Death Interlude
TTITLE4=One Life To Live
TTITLE5=Fiesta (Feat. Will Tracks)
TTITLE6=Then and Now Interlude
TTITLE7=Startin' Somethin' (Feat. Chauncey Black)
TTITLE8=A Night In The Bronx With Lord and Gunz (Feat. 1 Accord)
TTITLE9=Who Am I
TTITLE10=Deja Vu (Uptown Baby)
TTITLE11=Keep On
TTITLE12=Worldwide
TTITLE13=Streets To Da Stage (Feat. Cam'ron
TTITLE14=BX Most Wanted Interlude
TTITLE15=Cross Bronx Expressway (Feat. Fat Joe and Big Pun)
TTITLE16=Precipitation Interlude
TTITLE17=My Time To Go (Feat. 1 Accord)
TTITLE18=Untitled
EXTD=
EXTT0=
EXTT1=
EXTT2=featuring Kurupt and Sticky Fingaz\n
EXTT3=
EXTT4=
EXTT5=Featuring Will Tracks\n
EXTT6=
EXTT7=Featuring Chauncey Black\n
EXTT8=Featuring 1 Accord\n
EXTT9=
EXTT10=
EXTT11=
EXTT12=
EXTT13=Featuring Cam'ron\n
EXTT14=
EXTT15=Featuring Fat Joe and Punisher\n
EXTT16=
EXTT17=Featuring 1 Accord\n
EXTT18=
PLAYORDER=
